<svg width="56" height="57" viewBox="0 0 56 57" fill="none" xmlns="http://www.w3.org/2000/svg">
<path d="M55.4908 10.9609C55.4657 9.86755 55.0118 8.82792 54.227 8.06631C53.4422 7.3047 52.3894 6.88218 51.2958 6.88992C50.2022 6.89765 49.1555 7.33502 48.3815 8.10765C47.6076 8.88028 47.1684 9.92623 47.1588 11.0198L47.3886 42.433L7.11294 2.1574C6.33154 1.37599 5.27173 0.937012 4.16667 0.937012C3.0616 0.937012 2.00179 1.37599 1.22038 2.1574C0.438983 2.9388 6.32325e-08 3.99861 0 5.10368C-6.32325e-08 6.20875 0.438983 7.26855 1.22038 8.04995L41.4783 48.3079L10.1034 48.0751C9.00984 48.0848 7.96389 48.524 7.19126 49.2979C6.41863 50.0719 5.98127 51.1186 5.97353 52.2122C5.9658 53.3058 6.38832 54.3586 7.14992 55.1434C7.91153 55.9282 8.95116 56.3821 10.0445 56.4072L50.547 56.7107C51.237 56.7155 51.9211 56.5831 52.5596 56.3212C53.198 56.0594 53.778 55.6733 54.266 55.1853C54.7539 54.6974 55.14 54.1173 55.4019 53.4789C55.6638 52.8405 55.7961 52.1563 55.7913 51.4663L55.4908 10.9609Z" fill="black"/>
</svg>
